<svg width="184" height="225" viewBox="0 0 184 225" fill="none" xmlns="http://www.w3.org/2000/svg">
<g filter="url(#filter0_f)">
<rect width="136.429" height="178.69" transform="matrix(0.968143 0.250398 -0.49799 0.867183 142.688 -17.7493)" fill="#7443BF"/>
</g>
<rect width="113.887" height="149.165" transform="matrix(0.968143 0.250398 -0.49799 0.867183 130.283 -18)" fill="white"/>
<rect width="91.6046" height="4.38722" transform="matrix(0.968143 0.250398 -0.49799 0.867183 133.581 3.47583)" fill="#DAD6E1"/>
<rect width="91.6046" height="4.38722" transform="matrix(0.968143 0.250398 -0.49799 0.867183 118.6 29.5637)" fill="#DAD6E1"/>
<rect width="91.6046" height="4.38722" transform="matrix(0.968143 0.250398 -0.49799 0.867183 128.586 12.1729)" fill="#DAD6E1"/>
<rect width="91.6046" height="4.38722" transform="matrix(0.968143 0.250398 -0.49799 0.867183 113.606 38.2603)" fill="#DAD6E1"/>
<rect width="21.6632" height="4.38722" transform="matrix(0.968143 0.250398 -0.49799 0.867183 123.594 20.8694)" fill="#DAD6E1"/>
<rect width="21.6632" height="4.38722" transform="matrix(0.968143 0.250398 -0.49799 0.867183 108.611 46.9546)" fill="#DAD6E1"/>
<rect width="91.6046" height="4.38722" transform="matrix(0.968143 0.250398 -0.49799 0.867183 103.931 55.1069)" fill="#DAD6E1"/>
<rect width="91.6046" height="4.38722" transform="matrix(0.968143 0.250398 -0.49799 0.867183 88.9502 81.1938)" fill="#DAD6E1"/>
<rect width="91.6046" height="4.38722" transform="matrix(0.968143 0.250398 -0.49799 0.867183 98.9365 63.803)" fill="#DAD6E1"/>
<rect width="91.6046" height="4.38722" transform="matrix(0.968143 0.250398 -0.49799 0.867183 83.9561 89.8904)" fill="#DAD6E1"/>
<rect width="21.6632" height="4.38722" transform="matrix(0.968143 0.250398 -0.49799 0.867183 93.9446 72.4998)" fill="#DAD6E1"/>
<rect width="21.6632" height="4.38722" transform="matrix(0.968143 0.250398 -0.49799 0.867183 78.9617 98.5872)" fill="#DAD6E1"/>
<defs>
<filter id="filter0_f" x="0.701904" y="-70.7493" width="327.068" height="295.118" filterUnits="userSpaceOnUse" color-interpolation-filters="sRGB">
<feFlood flood-opacity="0" result="BackgroundImageFix"/>
<feBlend mode="normal" in="SourceGraphic" in2="BackgroundImageFix" result="shape"/>
<feGaussianBlur stdDeviation="26.5" result="effect1_foregroundBlur"/>
</filter>
</defs>
</svg>
