<svg width="8" height="14" viewBox="0 0 8 14" fill="none" xmlns="http://www.w3.org/2000/svg">
<path d="M0.698145 1.16566C0.480852 1.38426 0.358887 1.67996 0.358887 1.98816C0.358887 2.29636 0.480852 2.59206 0.698145 2.81066L4.82815 6.999L0.698145 11.129C0.480852 11.3476 0.358887 11.6433 0.358887 11.9515C0.358887 12.2597 0.480852 12.5554 0.698145 12.774C0.806602 12.8833 0.935636 12.9701 1.07781 13.0294C1.21998 13.0886 1.37247 13.1191 1.52648 13.1191C1.6805 13.1191 1.83299 13.0886 1.97515 13.0294C2.11732 12.9701 2.24636 12.8833 2.35481 12.774L7.30148 7.82734C7.41083 7.71888 7.49763 7.58984 7.55685 7.44768C7.61609 7.30551 7.64658 7.15302 7.64658 6.999C7.64658 6.84499 7.61609 6.6925 7.55685 6.55033C7.49763 6.40816 7.41083 6.27913 7.30148 6.17067L2.35481 1.16566C2.24636 1.05636 2.11732 0.969557 1.97515 0.910257C1.83299 0.851057 1.6805 0.820557 1.52648 0.820557C1.37247 0.820557 1.21998 0.851057 1.07781 0.910257C0.935636 0.969557 0.806602 1.05636 0.698145 1.16566Z" fill="#511E9F"/>
</svg>
