<svg width="24" height="25" viewBox="0 0 24 25" fill="none" xmlns="http://www.w3.org/2000/svg">
<path d="M21.1875 4.52734H2.8125C2.70937 4.52734 2.625 4.61172 2.625 4.71484V6.21484C2.625 6.31797 2.70937 6.40234 2.8125 6.40234H21.1875C21.2906 6.40234 21.375 6.31797 21.375 6.21484V4.71484C21.375 4.61172 21.2906 4.52734 21.1875 4.52734ZM21.1875 19.1523H2.8125C2.70937 19.1523 2.625 19.2367 2.625 19.3398V20.8398C2.625 20.943 2.70937 21.0273 2.8125 21.0273H21.1875C21.2906 21.0273 21.375 20.943 21.375 20.8398V19.3398C21.375 19.2367 21.2906 19.1523 21.1875 19.1523ZM21.1875 11.8398H2.8125C2.70937 11.8398 2.625 11.9242 2.625 12.0273V13.5273C2.625 13.6305 2.70937 13.7148 2.8125 13.7148H21.1875C21.2906 13.7148 21.375 13.6305 21.375 13.5273V12.0273C21.375 11.9242 21.2906 11.8398 21.1875 11.8398Z" fill="white"/>
</svg>
