<svg width="1280" height="571" viewBox="0 0 1280 571" fill="none" xmlns="http://www.w3.org/2000/svg">
<circle cx="218" cy="438" r="13.9592" fill="#F0EBF3"/>
<circle cx="218" cy="438" r="31" stroke="#F0EBF3" stroke-width="4"/>
<circle cx="218" cy="438" r="48" stroke="#F0EBF3" stroke-width="4"/>
<circle cx="218" cy="438" r="63" stroke="#F0EBF3" stroke-width="4"/>
<circle cx="218" cy="291" r="13.9592" fill="#F0EBF3"/>
<circle cx="218" cy="291" r="31" stroke="#F0EBF3" stroke-width="4"/>
<circle cx="218" cy="291" r="48" stroke="#F0EBF3" stroke-width="4"/>
<circle cx="218" cy="291" r="63" stroke="#F0EBF3" stroke-width="4"/>
<circle cx="218" cy="144" r="13.9592" fill="#F0EBF3"/>
<circle cx="218" cy="144" r="31" stroke="#F0EBF3" stroke-width="4"/>
<circle cx="218" cy="144" r="48" stroke="#F0EBF3" stroke-width="4"/>
<circle cx="218" cy="144" r="63" stroke="#F0EBF3" stroke-width="4"/>
<circle cx="352" cy="359" r="13.9592" fill="#F0EBF3"/>
<circle cx="352" cy="359" r="31" stroke="#F0EBF3" stroke-width="4"/>
<circle cx="352" cy="359" r="48" stroke="#F0EBF3" stroke-width="4"/>
<circle cx="352" cy="359" r="63" stroke="#F0EBF3" stroke-width="4"/>
<circle cx="352" cy="212" r="13.9592" fill="#F0EBF3"/>
<circle cx="352" cy="212" r="31" stroke="#F0EBF3" stroke-width="4"/>
<circle cx="352" cy="212" r="48" stroke="#F0EBF3" stroke-width="4"/>
<circle cx="352" cy="212" r="63" stroke="#F0EBF3" stroke-width="4"/>
<circle cx="352" cy="65.0002" r="13.9592" fill="#F0EBF3"/>
<circle cx="352" cy="65" r="31" stroke="#F0EBF3" stroke-width="4"/>
<circle cx="352" cy="65" r="48" stroke="#F0EBF3" stroke-width="4"/>
<circle cx="352" cy="65" r="63" stroke="#F0EBF3" stroke-width="4"/>
<circle cx="-50" cy="438" r="63" stroke="#F0EBF3" stroke-width="4"/>
<circle cx="-50" cy="291" r="63" stroke="#F0EBF3" stroke-width="4"/>
<circle cx="-50" cy="144" r="63" stroke="#F0EBF3" stroke-width="4"/>
<circle cx="1290" cy="438" r="13.9592" fill="#F0EBF3"/>
<circle cx="1290" cy="438" r="31" stroke="#F0EBF3" stroke-width="4"/>
<circle cx="1290" cy="438" r="48" stroke="#F0EBF3" stroke-width="4"/>
<circle cx="1290" cy="438" r="63" stroke="#F0EBF3" stroke-width="4"/>
<circle cx="1290" cy="291" r="13.9592" fill="#F0EBF3"/>
<circle cx="1290" cy="291" r="31" stroke="#F0EBF3" stroke-width="4"/>
<circle cx="1290" cy="291" r="48" stroke="#F0EBF3" stroke-width="4"/>
<circle cx="1290" cy="291" r="63" stroke="#F0EBF3" stroke-width="4"/>
<circle cx="1290" cy="144" r="13.9592" fill="#F0EBF3"/>
<circle cx="1290" cy="144" r="31" stroke="#F0EBF3" stroke-width="4"/>
<circle cx="1290" cy="144" r="48" stroke="#F0EBF3" stroke-width="4"/>
<circle cx="1290" cy="144" r="63" stroke="#F0EBF3" stroke-width="4"/>
<circle cx="486" cy="438" r="13.9592" fill="#F0EBF3"/>
<circle cx="486" cy="438" r="31" stroke="#F0EBF3" stroke-width="4"/>
<circle cx="486" cy="438" r="48" stroke="#F0EBF3" stroke-width="4"/>
<circle cx="486" cy="438" r="63" stroke="#F0EBF3" stroke-width="4"/>
<circle cx="486" cy="291" r="13.9592" fill="#F0EBF3"/>
<circle cx="486" cy="291" r="31" stroke="#F0EBF3" stroke-width="4"/>
<circle cx="486" cy="291" r="48" stroke="#F0EBF3" stroke-width="4"/>
<circle cx="486" cy="291" r="63" stroke="#F0EBF3" stroke-width="4"/>
<circle cx="486" cy="144" r="13.9592" fill="#F0EBF3"/>
<circle cx="486" cy="144" r="31" stroke="#F0EBF3" stroke-width="4"/>
<circle cx="486" cy="144" r="48" stroke="#F0EBF3" stroke-width="4"/>
<circle cx="486" cy="144" r="63" stroke="#F0EBF3" stroke-width="4"/>
<circle cx="620" cy="506" r="13.9592" fill="#F0EBF3"/>
<circle cx="620" cy="506" r="31" stroke="#F0EBF3" stroke-width="4"/>
<circle cx="620" cy="506" r="48" stroke="#F0EBF3" stroke-width="4"/>
<circle cx="620" cy="506" r="63" stroke="#F0EBF3" stroke-width="4"/>
<circle cx="620" cy="359" r="13.9592" fill="#F0EBF3"/>
<circle cx="620" cy="359" r="31" stroke="#F0EBF3" stroke-width="4"/>
<circle cx="620" cy="359" r="48" stroke="#F0EBF3" stroke-width="4"/>
<circle cx="620" cy="359" r="63" stroke="#F0EBF3" stroke-width="4"/>
<circle cx="620" cy="212" r="13.9592" fill="#F0EBF3"/>
<circle cx="620" cy="212" r="31" stroke="#F0EBF3" stroke-width="4"/>
<circle cx="620" cy="212" r="48" stroke="#F0EBF3" stroke-width="4"/>
<circle cx="620" cy="212" r="63" stroke="#F0EBF3" stroke-width="4"/>
<circle cx="84" cy="506" r="13.9592" fill="#F0EBF3"/>
<circle cx="84" cy="506" r="31" stroke="#F0EBF3" stroke-width="4"/>
<circle cx="84" cy="506" r="48" stroke="#F0EBF3" stroke-width="4"/>
<circle cx="84" cy="506" r="63" stroke="#F0EBF3" stroke-width="4"/>
<circle cx="84" cy="359" r="13.9592" fill="#F0EBF3"/>
<circle cx="84" cy="359" r="31" stroke="#F0EBF3" stroke-width="4"/>
<circle cx="84" cy="359" r="48" stroke="#F0EBF3" stroke-width="4"/>
<circle cx="84" cy="359" r="63" stroke="#F0EBF3" stroke-width="4"/>
<circle cx="84" cy="212" r="13.9592" fill="#F0EBF3"/>
<circle cx="84" cy="212" r="31" stroke="#F0EBF3" stroke-width="4"/>
<circle cx="84" cy="212" r="48" stroke="#F0EBF3" stroke-width="4"/>
<circle cx="84" cy="212" r="63" stroke="#F0EBF3" stroke-width="4"/>
<circle cx="1156" cy="506" r="13.9592" fill="#F0EBF3"/>
<circle cx="1156" cy="506" r="31" stroke="#F0EBF3" stroke-width="4"/>
<circle cx="1156" cy="506" r="48" stroke="#F0EBF3" stroke-width="4"/>
<circle cx="1156" cy="506" r="63" stroke="#F0EBF3" stroke-width="4"/>
<circle cx="1156" cy="359" r="13.9592" fill="#F0EBF3"/>
<circle cx="1156" cy="359" r="31" stroke="#F0EBF3" stroke-width="4"/>
<circle cx="1156" cy="359" r="48" stroke="#F0EBF3" stroke-width="4"/>
<circle cx="1156" cy="359" r="63" stroke="#F0EBF3" stroke-width="4"/>
<circle cx="1156" cy="212" r="13.9592" fill="#F0EBF3"/>
<circle cx="1156" cy="212" r="31" stroke="#F0EBF3" stroke-width="4"/>
<circle cx="1156" cy="212" r="48" stroke="#F0EBF3" stroke-width="4"/>
<circle cx="1156" cy="212" r="63" stroke="#F0EBF3" stroke-width="4"/>
<circle cx="754" cy="438" r="13.9592" fill="#F0EBF3"/>
<circle cx="754" cy="438" r="31" stroke="#F0EBF3" stroke-width="4"/>
<circle cx="754" cy="438" r="48" stroke="#F0EBF3" stroke-width="4"/>
<circle cx="754" cy="438" r="63" stroke="#F0EBF3" stroke-width="4"/>
<circle cx="754" cy="291" r="13.9592" fill="#F0EBF3"/>
<circle cx="754" cy="291" r="31" stroke="#F0EBF3" stroke-width="4"/>
<circle cx="754" cy="291" r="48" stroke="#F0EBF3" stroke-width="4"/>
<circle cx="754" cy="291" r="63" stroke="#F0EBF3" stroke-width="4"/>
<circle cx="754" cy="144" r="13.9592" fill="#F0EBF3"/>
<circle cx="754" cy="144" r="31" stroke="#F0EBF3" stroke-width="4"/>
<circle cx="754" cy="144" r="48" stroke="#F0EBF3" stroke-width="4"/>
<circle cx="754" cy="144" r="63" stroke="#F0EBF3" stroke-width="4"/>
<circle cx="888" cy="359" r="13.9592" fill="#F0EBF3"/>
<circle cx="888" cy="359" r="31" stroke="#F0EBF3" stroke-width="4"/>
<circle cx="888" cy="359" r="48" stroke="#F0EBF3" stroke-width="4"/>
<circle cx="888" cy="359" r="63" stroke="#F0EBF3" stroke-width="4"/>
<circle cx="888" cy="212" r="13.9592" fill="#F0EBF3"/>
<circle cx="888" cy="212" r="31" stroke="#F0EBF3" stroke-width="4"/>
<circle cx="888" cy="212" r="48" stroke="#F0EBF3" stroke-width="4"/>
<circle cx="888" cy="212" r="63" stroke="#F0EBF3" stroke-width="4"/>
<circle cx="888" cy="65.0002" r="13.9592" fill="#F0EBF3"/>
<circle cx="888" cy="65" r="31" stroke="#F0EBF3" stroke-width="4"/>
<circle cx="888" cy="65" r="48" stroke="#F0EBF3" stroke-width="4"/>
<circle cx="888" cy="65" r="63" stroke="#F0EBF3" stroke-width="4"/>
<circle cx="1022" cy="438" r="13.9592" fill="#F0EBF3"/>
<circle cx="1022" cy="438" r="31" stroke="#F0EBF3" stroke-width="4"/>
<circle cx="1022" cy="438" r="48" stroke="#F0EBF3" stroke-width="4"/>
<circle cx="1022" cy="438" r="63" stroke="#F0EBF3" stroke-width="4"/>
<circle cx="1022" cy="291" r="13.9592" fill="#F0EBF3"/>
<circle cx="1022" cy="291" r="31" stroke="#F0EBF3" stroke-width="4"/>
<circle cx="1022" cy="291" r="48" stroke="#F0EBF3" stroke-width="4"/>
<circle cx="1022" cy="291" r="63" stroke="#F0EBF3" stroke-width="4"/>
<circle cx="1022" cy="144" r="13.9592" fill="#F0EBF3"/>
<circle cx="1022" cy="144" r="31" stroke="#F0EBF3" stroke-width="4"/>
<circle cx="1022" cy="144" r="48" stroke="#F0EBF3" stroke-width="4"/>
<circle cx="1022" cy="144" r="63" stroke="#F0EBF3" stroke-width="4"/>
</svg>
